<svg xmlns="http://www.w3.org/2000/svg" viewBox="0 0 841.9 595.3">
    <g fill="blue">
		<rect id="w1" style="fill:white;" x="0" y="0" width="24" height="120"/>
		<rect id="w2" style="fill:white;" x="25" y="0" width="24" height="120"/>
		<rect id="w3" style="fill:white;" x="50" y="0" width="24" height="120"/>
		<rect id="w4" style="fill:white;" x="75" y="0" width="24" height="120"/>
		<rect id="w5" style="fill:white;" x="100" y="0" width="24" height="120"/>
		<rect id="w6" style="fill:white;" x="125" y="0" width="24" height="120"/>
		<rect id="w7" style="fill:white;" x="150" y="0" width="24" height="120"/>
        <rect id="w8" style="fill:white;" x="175" y="0" width="24" height="120"/>
		<rect id="w9" style="fill:white;" x="200" y="0" width="24" height="120"/>
		<rect id="w10" style="fill:white;" x="225" y="0" width="24" height="120"/>
		<rect id="w11" style="fill:white;" x="250" y="0" width="24" height="120"/>
		<rect id="w12" style="fill:white;" x="275" y="0" width="24" height="120"/>
		<rect id="w13" style="fill:white;" x="300" y="0" width="24" height="120"/>
		<rect id="w14" style="fill:white;" x="325" y="0" width="24" height="120"/>
		<rect id="b1" style="fill:black;" x="17" y="0" width="15" height="80"/>
		<rect id="b2" style="fill:black;" x="42" y="0" width="15" height="80"/>
		<rect id="b3" style="fill:black;" x="92" y="0" width="15" height="80"/>
		<rect id="b4" style="fill:black;" x="117" y="0" width="15" height="80"/>
		<rect id="b5" style="fill:black;" x="142" y="0" width="15" height="80"/>
        <rect id="b6" style="fill:black;" x="192" y="0" width="15" height="80"/>
		<rect id="b7" style="fill:black;" x="217" y="0" width="15" height="80"/>
		<rect id="b8" style="fill:black;" x="267" y="0" width="15" height="80"/>
		<rect id="b9" style="fill:black;" x="292" y="0" width="15" height="80"/>
		<rect id="b10" style="fill:black;" x="317" y="0" width="15" height="80"/>
    </g>
</svg>