<svg xmlns="http://www.w3.org/2000/svg" viewBox="0 0 841.9 595.3">
    <g fill="blue">
		<rect style="fill:white;" x="0" y="0" width="24" height="120"/>
		<rect style="fill:white;" x="25" y="0" width="24" height="120"/>
		<rect style="fill:white;" x="50" y="0" width="24" height="120"/>
		<rect style="fill:white;" x="75" y="0" width="24" height="120"/>
		<rect style="fill:white;" x="100" y="0" width="24" height="120"/>
		<rect style="fill:white;" x="125" y="0" width="24" height="120"/>
		<rect style="fill:white;" x="150" y="0" width="24" height="120"/>
        <rect style="fill:white;" x="175" y="0" width="24" height="120"/>
		<rect style="fill:white;" x="200" y="0" width="24" height="120"/>
		<rect style="fill:white;" x="225" y="0" width="24" height="120"/>
		<rect style="fill:white;" x="250" y="0" width="24" height="120"/>
		<rect style="fill:white;" x="275" y="0" width="24" height="120"/>
		<rect style="fill:white;" x="300" y="0" width="24" height="120"/>
		<rect style="fill:white;" x="325" y="0" width="24" height="120"/>
		<rect style="fill:black;" x="17" y="0" width="15" height="80"/>
		<rect style="fill:black;" x="42" y="0" width="15" height="80"/>
		<rect style="fill:black;" x="92" y="0" width="15" height="80"/>
		<rect style="fill:black;" x="117" y="0" width="15" height="80"/>
		<rect style="fill:black;" x="142" y="0" width="15" height="80"/>
        <rect style="fill:black;" x="192" y="0" width="15" height="80"/>
		<rect style="fill:black;" x="217" y="0" width="15" height="80"/>
		<rect style="fill:black;" x="267" y="0" width="15" height="80"/>
		<rect style="fill:black;" x="292" y="0" width="15" height="80"/>
		<rect style="fill:black;" x="317" y="0" width="15" height="80"/>
    </g>
</svg>