<svg xmlns="http://www.w3.org/2000/svg" viewBox="0 0 841.9 595.3">
    <g fill="blue">
		<rect style="fill:white;stroke:black" x="0" y="0" width="24" height="120"/>
		<rect style="fill:white;stroke:black" x="25" y="0" width="24" height="120"/>
		<rect style="fill:white;stroke:black" x="50" y="0" width="24" height="120"/>
		<rect style="fill:white;stroke:black" x="75" y="0" width="24" height="120"/>
		<rect style="fill:white;stroke:black" x="100" y="0" width="24" height="120"/>
		<rect style="fill:white;stroke:black" x="125" y="0" width="24" height="120"/>
		<rect style="fill:white;stroke:black" x="150" y="0" width="24" height="120"/>
        <rect style="fill:white;stroke:black" x="175" y="0" width="24" height="120"/>
		<rect style="fill:white;stroke:black" x="200" y="0" width="24" height="120"/>
		<rect style="fill:white;stroke:black" x="225" y="0" width="24" height="120"/>
		<rect style="fill:white;stroke:black" x="250" y="0" width="24" height="120"/>
		<rect style="fill:white;stroke:black" x="275" y="0" width="24" height="120"/>
		<rect style="fill:white;stroke:black" x="300" y="0" width="24" height="120"/>
		<rect style="fill:white;stroke:black" x="325" y="0" width="24" height="120"/>
		<rect style="fill:black;stroke:black" x="14.33333" y="0" width="23" height="80"/>
		<rect style="fill:black;stroke:black" x="41.66666" y="0" width="23" height="80"/>
		<rect style="fill:black;stroke:black" x="82.25" y="0" width="23" height="80"/>
		<rect style="fill:black;stroke:black" x="108.25" y="0" width="23" height="80"/>
		<rect style="fill:black;stroke:black" x="134.75" y="0" width="23" height="80"/>
    </g>
</svg>